<svg width="184" height="184" viewBox="0 0 184 184" fill="none" xmlns="http://www.w3.org/2000/svg">
<rect x="12.5" y="2.5" width="159" height="159" rx="15.5" fill="white"/>
<rect x="12.5" y="2.5" width="159" height="159" rx="15.5" stroke="#E5EEFF"/>
<g filter="url(#filter0_dd_107_6338)">
<rect x="12" y="2" width="160" height="160" rx="16" fill="white" fill-opacity="0.01" shape-rendering="crispEdges"/>
</g>
<path d="M112 85.3337V78.667H125.333V85.3337H112ZM116 108.667L105.333 100.667L109.333 95.3337L120 103.334L116 108.667ZM109.333 68.667L105.333 63.3337L116 55.3337L120 60.667L109.333 68.667ZM68.6667 105.334V92.0003H65.3333C63.5 92.0003 61.9306 91.3475 60.625 90.042C59.3194 88.7364 58.6667 87.167 58.6667 85.3337V78.667C58.6667 76.8337 59.3194 75.2642 60.625 73.9587C61.9306 72.6531 63.5 72.0003 65.3333 72.0003H78.6667L95.3333 62.0003V102L78.6667 92.0003H75.3333V105.334H68.6667ZM88.6667 90.167V73.8337L80.5 78.667H65.3333V85.3337H80.5L88.6667 90.167ZM98.6667 93.167V70.8337C100.167 72.167 101.375 73.792 102.292 75.7087C103.208 77.6253 103.667 79.7225 103.667 82.0003C103.667 84.2781 103.208 86.3753 102.292 88.292C101.375 90.2087 100.167 91.8337 98.6667 93.167Z" fill="#FD5E02"/>
<defs>
<filter id="filter0_dd_107_6338" x="0" y="0" width="184" height="184" filterUnits="userSpaceOnUse" color-interpolation-filters="sRGB">
<feFlood flood-opacity="0" result="BackgroundImageFix"/>
<feColorMatrix in="SourceAlpha" type="matrix" values="0 0 0 0 0 0 0 0 0 0 0 0 0 0 0 0 0 0 127 0" result="hardAlpha"/>
<feMorphology radius="4" operator="erode" in="SourceAlpha" result="effect1_dropShadow_107_6338"/>
<feOffset dy="4"/>
<feGaussianBlur stdDeviation="3"/>
<feComposite in2="hardAlpha" operator="out"/>
<feColorMatrix type="matrix" values="0 0 0 0 0.0431373 0 0 0 0 0.109804 0 0 0 0 0.188235 0 0 0 0.05 0"/>
<feBlend mode="normal" in2="BackgroundImageFix" result="effect1_dropShadow_107_6338"/>
<feColorMatrix in="SourceAlpha" type="matrix" values="0 0 0 0 0 0 0 0 0 0 0 0 0 0 0 0 0 0 127 0" result="hardAlpha"/>
<feMorphology radius="3" operator="erode" in="SourceAlpha" result="effect2_dropShadow_107_6338"/>
<feOffset dy="10"/>
<feGaussianBlur stdDeviation="7.5"/>
<feComposite in2="hardAlpha" operator="out"/>
<feColorMatrix type="matrix" values="0 0 0 0 0.0431373 0 0 0 0 0.109804 0 0 0 0 0.188235 0 0 0 0.05 0"/>
<feBlend mode="normal" in2="effect1_dropShadow_107_6338" result="effect2_dropShadow_107_6338"/>
<feBlend mode="normal" in="SourceGraphic" in2="effect2_dropShadow_107_6338" result="shape"/>
</filter>
</defs>
</svg>
